<svg width="40" height="40" viewBox="0 0 40 40" fill="none" xmlns="http://www.w3.org/2000/svg">
<path d="M23.8703 22.2579C26.7208 22.2579 29.0316 19.9471 29.0316 17.0966C29.0316 14.2461 26.7208 11.9353 23.8703 11.9353C21.0198 11.9353 18.709 14.2461 18.709 17.0966C18.709 19.9471 21.0198 22.2579 23.8703 22.2579Z" fill="#FFDA00"/>
<path d="M20.0006 28.7096C18.5773 28.7096 17.4199 29.867 17.4199 31.2903C17.4199 32.7136 18.5773 33.871 20.0006 33.871C21.4239 33.871 22.5812 32.7136 22.5812 31.2903C22.5812 29.867 21.4239 28.7096 20.0006 28.7096ZM20.0006 32.5806C19.289 32.5806 18.7102 32.0019 18.7102 31.2903C18.7102 30.5787 19.289 30 20.0006 30C20.7122 30 21.2909 30.5787 21.2909 31.2903C21.2909 32.0019 20.7123 32.5806 20.0006 32.5806Z" fill="#414140"/>
<path d="M39.075 22.6625C38.4962 22.2612 37.7556 22.1702 37.0949 22.416L37.0208 22.4438L30.042 5.31338L12.4407 11.5999L8.81744 2.90312H1.93542C0.868339 2.90312 0 3.77146 0 4.83854C0 5.90563 0.868339 6.7741 1.93542 6.7741H6.02579L15.1484 28.1083C14.5465 29.0232 14.1936 30.1155 14.1936 31.2903C14.1936 34.4922 16.7987 37.0969 20 37.0969C23.2013 37.0969 25.8064 34.4924 25.8064 31.2903C25.8064 31.2264 25.7987 31.1638 25.7968 31.1007L38.5846 26.4509C39.431 26.1425 40 25.3309 40 24.4296C40.0001 23.7244 39.6543 23.0644 39.075 22.6625ZM21.66 9.67723L23.6549 14.1656L21.6278 14.9766L19.5995 10.4133L21.66 9.67723ZM18.3807 10.8482L20.953 16.6361L25.3775 14.8663L22.8782 9.24245L29.3131 6.94436L35.8125 22.8973L24.1731 27.2626C23.1163 26.1677 21.6376 25.4839 20.0001 25.4839C19.4189 25.4839 18.8589 25.5723 18.3291 25.7317L12.9374 12.792L18.3807 10.8482ZM1.93542 5.48378C1.57991 5.48378 1.29033 5.19474 1.29033 4.83854C1.29033 4.48234 1.58005 4.19331 1.93542 4.19331H7.95667L17.1431 26.2412C16.7599 26.4586 16.4064 26.7199 16.0837 27.0154L6.87748 5.48378H1.93542ZM20 35.8064C17.5096 35.8064 15.4839 33.78 15.4839 31.2902C15.4839 28.8004 17.5098 26.774 20 26.774C22.4902 26.774 24.5161 28.8004 24.5161 31.2902C24.5161 33.78 22.4904 35.8064 20 35.8064ZM38.144 25.238L25.6053 29.7974C25.4666 29.2774 25.2582 28.7865 24.9891 28.3342L37.5479 23.6245C37.8163 23.5232 38.1041 23.5594 38.3401 23.7226C38.5749 23.8858 38.7098 24.1439 38.7098 24.4296C38.7098 24.7902 38.482 25.1148 38.144 25.238Z" fill="#414140"/>
</svg>
